<svg width="660" height="492" viewBox="0 0 660 492" fill="none" xmlns="http://www.w3.org/2000/svg">
<path d="M659.279 431.696H0V432.025H659.279V431.696Z" fill="#E6E6E6"/>
<path d="M164.583 451.645H120.912V451.975H164.583V451.645Z" fill="#E6E6E6"/>
<path d="M107.092 451.645H81.7891V451.975H107.092V451.645Z" fill="#E6E6E6"/>
<path d="M277.621 456.498H252.318V456.827H277.621V456.498Z" fill="#E6E6E6"/>
<path d="M409.558 463.855H352.609V464.185H409.558V463.855Z" fill="#E6E6E6"/>
<path d="M340.874 463.855H332.527V464.185H340.874V463.855Z" fill="#E6E6E6"/>
<path d="M597.769 456.498H474.246V456.827H597.769V456.498Z" fill="#E6E6E6"/>
<path d="M312.497 372.888H57.8966C55.9021 372.884 53.9905 372.09 52.5814 370.678C51.1723 369.266 50.3809 367.353 50.3809 365.359V7.46303C50.3982 5.47996 51.1973 3.58381 52.6045 2.18646C54.0118 0.789101 55.9135 0.00339711 57.8966 0H312.497C314.494 0 316.409 0.793228 317.821 2.20518C319.233 3.61714 320.026 5.53215 320.026 7.52896V365.359C320.026 367.356 319.233 369.271 317.821 370.683C316.409 372.095 314.494 372.888 312.497 372.888ZM57.8966 0.263712C55.9895 0.267205 54.1618 1.02724 52.8145 2.377C51.4672 3.72675 50.7105 5.55594 50.7105 7.46303V365.359C50.7105 367.266 51.4672 369.095 52.8145 370.445C54.1618 371.795 55.9895 372.555 57.8966 372.558H312.497C314.405 372.555 316.234 371.795 317.584 370.446C318.933 369.096 319.693 367.267 319.696 365.359V7.46303C319.693 5.55472 318.933 3.72557 317.584 2.37619C316.234 1.02681 314.405 0.267198 312.497 0.263712H57.8966Z" fill="#E6E6E6"/>
<path d="M597.715 372.888H343.101C341.105 372.884 339.193 372.09 337.781 370.679C336.37 369.268 335.576 367.355 335.572 365.359V7.46303C335.593 5.47875 336.395 3.58262 337.804 2.18563C339.214 0.78864 341.117 0.00336007 343.101 0H597.715C599.695 0.00686242 601.594 0.7941 602.998 2.19108C604.403 3.58807 605.2 5.48223 605.217 7.46303V365.359C605.217 367.351 604.428 369.262 603.021 370.673C601.615 372.085 599.707 372.881 597.715 372.888ZM343.101 0.263712C341.193 0.267198 339.364 1.02681 338.014 2.37619C336.665 3.72557 335.905 5.55472 335.902 7.46303V365.359C335.905 367.267 336.665 369.096 338.014 370.446C339.364 371.795 341.193 372.555 343.101 372.558H597.715C599.623 372.555 601.452 371.795 602.801 370.446C604.151 369.096 604.91 367.267 604.914 365.359V7.46303C604.91 5.55472 604.151 3.72557 602.801 2.37619C601.452 1.02681 599.623 0.267198 597.715 0.263712H343.101Z" fill="#E6E6E6"/>
<path d="M352.581 319.064H323.586V434.082H352.581V319.064Z" fill="#E0E0E0"/>
<path d="M347.07 434.082H352.582V418.418H341.295L347.07 434.082Z" fill="#FAFAFA"/>
<path d="M225.526 319.064H196.531V434.082H225.526V319.064Z" fill="#E0E0E0"/>
<path d="M352.582 319.064H220.727V424.47H352.582V319.064Z" fill="#FAFAFA"/>
<path d="M347.795 324.246V352.134H225.473V324.246H347.756M348.27 323.732H224.998V352.635H348.309V323.732H348.27Z" fill="#E0E0E0"/>
<path d="M226.225 434.082H220.727V418.418H232L226.225 434.082Z" fill="#FAFAFA"/>
<path d="M283.74 338.184C283.74 338.76 283.911 339.323 284.231 339.803C284.552 340.282 285.007 340.655 285.539 340.876C286.072 341.096 286.657 341.154 287.223 341.042C287.788 340.929 288.307 340.652 288.715 340.244C289.122 339.837 289.4 339.317 289.512 338.752C289.625 338.187 289.567 337.601 289.346 337.068C289.126 336.536 288.752 336.081 288.273 335.761C287.794 335.44 287.231 335.27 286.654 335.27C285.881 335.27 285.14 335.577 284.594 336.123C284.047 336.67 283.74 337.411 283.74 338.184Z" fill="#E6E6E6"/>
<path d="M347.795 357.817V385.704H225.473V357.817H347.756M348.27 357.316H224.998V386.218H348.309V357.329L348.27 357.316Z" fill="#E0E0E0"/>
<path d="M283.74 371.833C283.74 372.41 283.911 372.973 284.231 373.452C284.552 373.931 285.007 374.305 285.539 374.525C286.072 374.746 286.657 374.804 287.223 374.691C287.788 374.579 288.307 374.301 288.715 373.894C289.122 373.486 289.4 372.967 289.512 372.402C289.625 371.836 289.567 371.251 289.346 370.718C289.126 370.186 288.752 369.73 288.273 369.41C287.794 369.09 287.231 368.919 286.654 368.919C285.881 368.919 285.14 369.226 284.594 369.773C284.047 370.319 283.74 371.06 283.74 371.833Z" fill="#E6E6E6"/>
<path d="M347.795 391.4V419.301H225.473V391.4H347.756M348.27 390.886H224.998V419.802H348.309V390.886H348.27Z" fill="#E0E0E0"/>
<path d="M283.74 405.351C283.743 405.927 283.916 406.489 284.238 406.966C284.56 407.444 285.016 407.815 285.548 408.034C286.081 408.252 286.666 408.308 287.231 408.194C287.795 408.08 288.313 407.801 288.719 407.393C289.126 406.985 289.402 406.466 289.513 405.901C289.625 405.336 289.566 404.751 289.345 404.219C289.124 403.688 288.751 403.233 288.272 402.914C287.793 402.594 287.23 402.424 286.654 402.424C286.27 402.424 285.89 402.499 285.536 402.647C285.182 402.794 284.86 403.01 284.589 403.282C284.318 403.554 284.104 403.877 283.958 404.232C283.813 404.587 283.739 404.967 283.74 405.351Z" fill="#E6E6E6"/>
<path d="M207.817 252.266H178.822V434.095H207.817V252.266Z" fill="#E0E0E0"/>
<path d="M202.307 434.082H207.819V418.418H196.545L202.307 434.082Z" fill="#FAFAFA"/>
<path d="M99.458 252.266H70.4629V434.095H99.458V252.266Z" fill="#E0E0E0"/>
<path d="M207.816 252.266H94.6445V424.483H207.816V252.266Z" fill="#FAFAFA"/>
<path d="M202.94 257.118V296.108H99.5255V257.118H202.94ZM203.546 256.525H98.8926V296.675H203.52V256.538L203.546 256.525Z" fill="#E0E0E0"/>
<path d="M202.939 300.868V404.283H153.677V300.868H202.939ZM203.545 300.262H153.084V404.889H203.545V300.262Z" fill="#E0E0E0"/>
<path d="M148.787 300.868V404.283H99.5255V300.868H148.787ZM149.38 300.262H98.8926V404.889H149.354V300.262H149.38Z" fill="#E0E0E0"/>
<path d="M100.156 434.082H94.6445V418.418H105.931L100.156 434.082Z" fill="#FAFAFA"/>
<path d="M148.313 276.633C148.31 277.213 148.479 277.78 148.799 278.263C149.119 278.746 149.576 279.123 150.11 279.347C150.645 279.571 151.234 279.63 151.803 279.519C152.371 279.408 152.894 279.13 153.305 278.721C153.716 278.312 153.996 277.791 154.11 277.222C154.224 276.654 154.166 276.065 153.945 275.529C153.724 274.994 153.349 274.536 152.867 274.213C152.386 273.891 151.819 273.719 151.24 273.719C150.466 273.719 149.723 274.026 149.175 274.572C148.626 275.118 148.316 275.859 148.313 276.633Z" fill="#E6E6E6"/>
<path d="M158.754 350.116C158.754 350.696 158.926 351.262 159.248 351.744C159.57 352.226 160.028 352.601 160.564 352.822C161.1 353.043 161.689 353.1 162.257 352.986C162.825 352.872 163.347 352.592 163.756 352.182C164.164 351.771 164.442 351.248 164.554 350.679C164.665 350.111 164.605 349.522 164.382 348.987C164.158 348.452 163.781 347.996 163.298 347.676C162.815 347.356 162.247 347.187 161.668 347.189C161.284 347.189 160.904 347.265 160.55 347.412C160.195 347.56 159.874 347.775 159.603 348.047C159.332 348.319 159.118 348.642 158.972 348.997C158.826 349.352 158.752 349.733 158.754 350.116Z" fill="#E6E6E6"/>
<path d="M137.883 350.116C137.885 350.692 138.059 351.254 138.38 351.732C138.702 352.209 139.158 352.581 139.691 352.799C140.224 353.018 140.809 353.074 141.373 352.96C141.938 352.846 142.456 352.567 142.862 352.159C143.268 351.751 143.544 351.232 143.656 350.667C143.767 350.102 143.709 349.517 143.488 348.985C143.267 348.453 142.893 347.999 142.414 347.679C141.935 347.36 141.373 347.189 140.797 347.189C140.413 347.189 140.033 347.265 139.679 347.412C139.324 347.56 139.002 347.775 138.732 348.047C138.461 348.319 138.247 348.642 138.101 348.997C137.955 349.352 137.881 349.733 137.883 350.116Z" fill="#E6E6E6"/>
<path d="M134.585 201.568H122.362C123.488 207.497 124.198 213.498 124.485 219.527C124.485 226.119 115.176 252.266 128.441 252.266C141.705 252.266 132.396 226.185 132.396 219.527C132.705 213.497 133.437 207.496 134.585 201.568Z" fill="#E0E0E0"/>
<path d="M88.0781 228.308V236.219C88.092 240.461 89.783 244.524 92.7819 247.523C95.7808 250.522 99.8443 252.213 104.085 252.227H111.997C116.238 252.213 120.301 250.522 123.3 247.523C126.299 244.524 127.99 240.461 128.004 236.219V228.308H88.0781Z" fill="#F5F5F5"/>
<path d="M258.002 302.292C258.002 311.522 268.326 319.065 280.945 319.065H292.337C304.956 319.065 315.28 311.522 315.28 302.292H258.002Z" fill="#E0E0E0"/>
<path d="M559.872 288.764C552.962 294.407 543.416 304.732 534.687 319.262C528.859 328.94 525.352 339.041 523.809 352.463C523.809 337.3 523.901 321.016 523.954 305.641C525.708 301.686 529.716 292.561 532.591 285.362C542.177 261.325 545.776 255.404 554.386 234.677C565.897 206.987 577.685 174.208 574.31 176.832C567.427 182.172 541.056 231.552 538.208 238.619C530.444 257.48 525.645 277.428 523.98 297.757C523.98 283.252 524.086 270.067 524.139 259.835C524.323 226.462 524.89 215.69 525.167 212.367C526.235 210.679 527.488 208.714 528.226 207.66C534.423 198.693 536.81 191.072 542.638 177.702C550.919 158.781 558.039 125.171 555.955 126.858C547.279 133.926 540.449 149.089 531.457 168.432C522.464 187.776 525.035 198.891 523.255 215.399C522.886 218.643 522.596 230.879 522.385 247.823C520.064 229.759 515.687 217.865 507.709 207.053C497.899 193.749 488.406 184.769 481.444 180.075C474.482 175.381 493.469 208.055 502.541 222.269C510.623 234.98 518.073 246.175 522.319 257.211C522.095 280.193 521.989 309.281 521.989 336.324C519.906 324.009 516.504 310.731 511.968 300.46C506.51 288.118 498.124 269.183 491.438 262.762C489.843 261.219 498.427 298.047 503.938 307.83C509.45 317.614 513.498 326.857 516.966 332.408C517.77 333.727 520.46 338.698 521.989 341.572C521.989 374.628 522.174 403.795 522.464 413.724H523.888C523.796 411.166 523.769 394.341 523.809 372.084C527.25 360.006 535.109 346.214 541.596 333.634C548.664 320.014 566.781 283.16 559.872 288.764Z" fill="#E0E0E0"/>
<path d="M543.826 434.082H502.502L499.377 393.576H546.95L543.826 434.082Z" fill="#F0F0F0"/>
<path d="M550.024 398.296H496.293L494.764 384.623H551.567L550.024 398.296Z" fill="#F5F5F5"/>
<path d="M163.845 27.0305H89.9395V108.188H163.845V27.0305Z" fill="#E0E0E0"/>
<path d="M171.846 27.0305H95.502V108.188H171.846V27.0305Z" fill="#F5F5F5"/>
<path d="M165.453 101.793V33.4255L101.899 33.4255V101.793H165.453Z" fill="white"/>
<path d="M150.039 85.2052V49.9866H117.299V85.2052H150.039Z" fill="#F5F5F5"/>
<path d="M540.675 36.4844H472.018V111.879H540.675V36.4844Z" fill="#E0E0E0"/>
<path d="M548.111 36.4844H477.199V111.879H548.111V36.4844Z" fill="#F5F5F5"/>
<path d="M542.178 105.933V42.4312L483.146 42.4312V105.933H542.178Z" fill="white"/>
<path d="M512.655 92.6022C522.828 92.6022 531.075 84.3552 531.075 74.182C531.075 64.0087 522.828 55.7617 512.655 55.7617C502.481 55.7617 494.234 64.0087 494.234 74.182C494.234 84.3552 502.481 92.6022 512.655 92.6022Z" fill="#F5F5F5"/>
<path d="M240.624 75.4214H185.799V135.627H240.624V75.4214Z" fill="#E0E0E0"/>
<path d="M246.556 75.4214H189.924V135.627H246.556V75.4214Z" fill="#F5F5F5"/>
<path d="M241.811 130.88V80.1682H194.672V130.88H241.811Z" fill="white"/>
<path d="M218.247 92.6946L205.352 115.031H231.143L218.247 92.6946Z" fill="#F5F5F5"/>
<path d="M329.639 491.242C470.834 491.242 585.294 484.559 585.294 476.315C585.294 468.072 470.834 461.389 329.639 461.389C188.445 461.389 73.9844 468.072 73.9844 476.315C73.9844 484.559 188.445 491.242 329.639 491.242Z" fill="#F5F5F5"/>
<path d="M460.506 142.971L447.426 137.697C447.426 137.697 430.166 169.171 425.222 170.766C418.497 172.929 404.573 178.941 396.319 179.996C395.198 181.315 393.365 185.415 393.537 186.905C404.626 190.61 428.993 185.692 434.214 181.816C446.094 173.021 460.506 142.971 460.506 142.971Z" fill="#E58A7B"/>
<path d="M464.527 135.811C466.966 144.817 453.754 162.934 453.754 162.934L436.441 153.229C436.441 153.229 439.685 145.78 443.641 138.198C449.983 125.948 461.744 125.54 464.527 135.811Z" fill="#407BFF"/>
<path opacity="0.2" d="M464.527 135.811C466.966 144.817 453.754 162.934 453.754 162.934L436.441 153.229C436.441 153.229 439.685 145.78 443.641 138.198C449.983 125.948 461.744 125.54 464.527 135.811Z" fill="black"/>
<path opacity="0.2" d="M443.312 157.106L450.129 160.93L451.329 140.004C447.36 143.05 444.565 152.227 443.312 157.106Z" fill="black"/>
<path d="M453.135 129.034C453.135 129.034 439.659 159.018 447.518 214.845H500.616C501.46 206.697 498.664 166.929 508.778 128.533C502.953 127.394 497.059 126.641 491.135 126.278C483.622 125.843 476.089 125.843 468.575 126.278C463.366 126.807 458.205 127.728 453.135 129.034Z" fill="#407BFF"/>
<path opacity="0.2" d="M453.135 129.034C453.135 129.034 439.659 159.018 447.518 214.845H500.616C501.46 206.697 498.664 166.929 508.778 128.533C502.953 127.394 497.059 126.641 491.135 126.278C483.622 125.843 476.089 125.843 468.575 126.278C463.366 126.807 458.205 127.728 453.135 129.034Z" fill="black"/>
<g style="mix-blend-mode:multiply">
<path d="M440.821 477.502C440.741 478.926 460.876 480.073 485.783 480.073C510.691 480.073 530.97 478.926 531.049 477.502C531.128 476.078 511.007 474.944 486.087 474.944C461.166 474.944 440.913 476.091 440.821 477.502Z" fill="#E8ECF1"/>
</g>
<path d="M476.263 440.085L466.846 443.731L474.958 464.687L484.376 461.042L476.263 440.085Z" fill="#E58A7B"/>
<path d="M518.259 467.362H508.331L504.691 444.38H514.62L518.259 467.362Z" fill="#E58A7B"/>
<path d="M507.644 466.215H518.799C518.992 466.216 519.179 466.285 519.327 466.411C519.474 466.536 519.572 466.71 519.603 466.901L521.04 475.722C521.071 475.943 521.053 476.169 520.988 476.383C520.924 476.596 520.814 476.794 520.666 476.961C520.519 477.129 520.337 477.263 520.133 477.354C519.929 477.445 519.708 477.491 519.484 477.489C515.595 477.423 513.722 477.186 508.817 477.186C505.798 477.186 499.587 477.502 495.394 477.502C491.201 477.502 490.924 473.388 492.652 473.006C500.405 471.331 503.411 469.05 505.996 466.835C506.451 466.435 507.037 466.214 507.644 466.215Z" fill="#263238"/>
<path d="M474.681 462.813L485.229 459.728C485.417 459.675 485.618 459.688 485.798 459.765C485.978 459.841 486.126 459.977 486.218 460.15L490.174 468.061C490.265 468.262 490.312 468.48 490.311 468.701C490.31 468.922 490.26 469.14 490.166 469.339C490.072 469.539 489.935 469.716 489.766 469.857C489.596 469.998 489.398 470.101 489.185 470.158C485.348 471.213 482.776 471.859 477.977 473.256C474.667 474.219 471.292 475.788 468.022 476.83C465.754 477.555 460.427 477.581 457.671 477.581C453.597 477.581 452.687 473.283 454.441 473.085C458.858 472.597 459.451 472.821 461.891 471.595C465.882 469.85 469.499 467.352 472.544 464.237C473.119 463.583 473.856 463.092 474.681 462.813Z" fill="#263238"/>
<path d="M397.98 179.943L387.063 175.368L382.566 187.472C387.041 188.154 391.594 188.154 396.068 187.472L397.98 179.943Z" fill="#E58A7B"/>
<path d="M378.94 175.052L378.65 183.095L382.567 187.446L387.063 175.342L378.94 175.052Z" fill="#E58A7B"/>
<path d="M477.554 441.865L468.107 445.512L472.291 456.349L481.738 452.702L477.554 441.865Z" fill="#CF6F64"/>
<path d="M514.62 444.38H504.691L506.577 456.234H516.506L514.62 444.38Z" fill="#CF6F64"/>
<path opacity="0.2" d="M445.83 199.748C446.028 202.135 446.252 204.574 446.542 207.079L486.02 194.263C492.185 192.436 497.543 188.561 501.209 183.279C501.368 179.759 501.565 176.054 501.869 172.19C502.001 170.318 502.159 168.393 502.33 166.441C502.502 164.49 502.739 162.327 502.99 160.244L445.83 199.748Z" fill="black"/>
<path d="M458.727 156.499L457.408 156.341C458.186 149.748 463.104 144.553 468.286 144.685V146.004C463.75 145.911 459.426 150.592 458.727 156.499Z" fill="white"/>
<path d="M465.755 168.67H465.531V167.351C470.067 167.523 474.326 162.789 475.025 156.895L476.343 157.053C475.645 163.501 470.885 168.67 465.755 168.67Z" fill="white"/>
<path d="M490.398 100.87C488.539 108.135 486.35 121.439 491.137 126.278C491.137 126.278 487.788 133.649 474.299 133.649C461.97 133.649 468.576 126.278 468.576 126.278C476.778 124.353 476.923 118.367 475.842 112.697L490.398 100.87Z" fill="#E58A7B"/>
<path d="M484.466 105.695L475.855 112.697C476.122 114 476.277 115.323 476.317 116.653C478.835 119.158 483.885 112.816 484.4 109.572C484.661 108.295 484.683 106.98 484.466 105.695Z" fill="#CF6F64"/>
<path d="M461.048 100.777C461.647 101.816 462.454 102.719 463.418 103.432C464.382 104.144 465.483 104.65 466.652 104.918C469.816 105.616 471.398 102.702 470.528 99.7752C469.75 97.1381 467.153 93.5912 463.935 94.1977C463.246 94.3397 462.601 94.6447 462.054 95.0872C461.507 95.5298 461.074 96.0969 460.791 96.7413C460.508 97.3856 460.384 98.0882 460.429 98.7905C460.473 99.4927 460.686 100.174 461.048 100.777Z" fill="#CF6F64"/>
<path d="M466.281 77.5309C461.35 79.7857 459.61 99.3794 465.807 102.28C472.004 105.181 475.617 73.2456 466.281 77.5309Z" fill="#263238"/>
<path d="M491.902 89.9387C490.715 99.7751 490.583 105.564 485.309 110.6C483.675 112.272 481.61 113.459 479.343 114.031C477.077 114.603 474.696 114.538 472.464 113.842C470.233 113.146 468.236 111.848 466.696 110.089C465.156 108.33 464.132 106.18 463.737 103.876C462.142 95.0415 464.344 80.445 474.207 76.5289C476.279 75.6149 478.558 75.2718 480.807 75.5351C483.057 75.7985 485.195 76.6587 487 78.0266C488.805 79.3946 490.212 81.2205 491.074 83.315C491.935 85.4095 492.221 87.6964 491.902 89.9387Z" fill="#E58A7B"/>
<path d="M475.696 82.6207C483.001 80.7615 488.368 79.4957 486.443 85.5742C483.898 93.6965 480.839 101.555 484.939 101.911C487.445 102.135 498.521 97.4412 497.11 92.6813C495.883 88.541 501.065 87.407 501.988 85.3105C505.403 77.7156 495.633 78.7177 497.373 74.1028C499.114 69.4878 489.462 62.0512 484.188 65.7563C475.604 71.7426 460.876 71.6503 468.616 61.8007C474.167 54.7727 464.264 56.21 464.264 56.21C464.264 56.21 470.251 59.7569 460.177 65.2421C449.523 71.0965 459.293 86.8269 475.696 82.6207Z" fill="#263238"/>
<path d="M495.777 100.777C494.335 102.864 492.169 104.34 489.699 104.918C486.442 105.616 485.189 102.702 486.416 99.7752C487.51 97.1381 490.516 93.5912 493.628 94.1977C496.74 94.8042 497.452 98.1929 495.777 100.777Z" fill="#E58A7B"/>
<path d="M447.517 214.845C447.517 214.845 438.604 294.618 437.905 324.892C437.193 356.379 468.113 454.625 468.113 454.625L483.936 448.032C483.936 448.032 465.476 358.265 468.113 327.345C470.908 293.629 482.459 214.898 482.459 214.898L447.517 214.845Z" fill="#407BFF"/>
<path opacity="0.2" d="M469.67 236.747C462.563 251.488 467.349 280.641 471.2 297.915C472.663 285.718 474.404 272.48 476.052 260.23C475.894 241.401 474.43 226.858 469.67 236.747Z" fill="black"/>
<path d="M483.239 442.811C483.318 442.811 485.112 447.848 485.112 447.848L466.863 455.522L463.988 450.168L483.239 442.811Z" fill="#407BFF"/>
<path d="M466.361 214.845C466.361 214.845 473.178 290.715 477.688 319.13C482.646 350.261 502.081 453.939 502.081 453.939H520.264C520.264 453.939 509.373 352.78 507.316 321.952C505.074 288.513 500.617 214.845 500.617 214.845H466.361Z" fill="#407BFF"/>
<path d="M520.541 449.206C520.62 449.206 521.148 454.282 521.148 454.282H501.158L499.734 448.454L520.541 449.206Z" fill="#407BFF"/>
<path opacity="0.2" d="M513.578 443.193C513.537 443.194 513.497 443.179 513.465 443.153C513.434 443.126 513.413 443.089 513.407 443.048C513.301 442.125 503.478 350.749 501.632 323.06C499.628 293.023 495.593 226.396 495.553 225.724C495.551 225.702 495.554 225.68 495.561 225.659C495.568 225.638 495.58 225.619 495.595 225.603C495.61 225.587 495.628 225.574 495.648 225.565C495.668 225.557 495.69 225.552 495.712 225.552C495.755 225.552 495.797 225.568 495.828 225.598C495.86 225.627 495.88 225.667 495.883 225.71C495.883 226.383 499.957 292.957 501.961 323.046C503.807 350.736 513.631 442.046 513.723 443.035C513.727 443.057 513.726 443.079 513.72 443.101C513.715 443.122 513.705 443.142 513.691 443.16C513.678 443.177 513.661 443.191 513.641 443.202C513.622 443.212 513.6 443.218 513.578 443.22V443.193Z" fill="black"/>
<path d="M476.818 92.6814C476.818 93.4857 476.317 94.1318 475.79 94.1318C475.262 94.1318 474.88 93.4857 474.933 92.6814C474.985 91.877 475.434 91.231 475.961 91.231C476.488 91.231 476.871 91.8902 476.818 92.6814Z" fill="#263238"/>
<path d="M467.773 92.6814C467.773 93.4857 467.258 94.1318 466.744 94.1318C466.23 94.1318 465.834 93.4857 465.874 92.6814C465.913 91.877 466.388 91.231 466.915 91.231C467.443 91.231 467.825 91.8902 467.773 92.6814Z" fill="#263238"/>
<path d="M470.62 93.0901C469.519 95.5462 468.101 97.847 466.4 99.9334C467.719 101.252 470.185 100.645 470.185 100.645L470.62 93.0901Z" fill="#DF5753"/>
<path d="M470.857 104.008C470.827 104.008 470.797 104.001 470.768 103.989C470.74 103.977 470.715 103.96 470.694 103.937C470.673 103.915 470.657 103.889 470.646 103.86C470.636 103.831 470.631 103.801 470.633 103.77C470.637 103.706 470.664 103.646 470.711 103.602C470.758 103.557 470.82 103.533 470.884 103.533C471.892 103.54 472.889 103.321 473.802 102.892C474.715 102.463 475.52 101.835 476.158 101.054C476.204 101.014 476.262 100.992 476.323 100.992C476.383 100.992 476.442 101.014 476.488 101.054C476.53 101.098 476.554 101.157 476.554 101.219C476.554 101.28 476.53 101.339 476.488 101.384C475.805 102.214 474.944 102.88 473.97 103.334C472.996 103.788 471.932 104.018 470.857 104.008Z" fill="#263238"/>
<path d="M478.425 90.2551C478.362 90.2875 478.292 90.3044 478.221 90.3044C478.15 90.3044 478.079 90.2875 478.016 90.2551C477.523 89.9362 476.962 89.7379 476.378 89.676C475.793 89.6142 475.203 89.6906 474.654 89.8991C474.6 89.9259 474.542 89.9417 474.482 89.9455C474.423 89.9494 474.363 89.9412 474.306 89.9216C474.25 89.9019 474.198 89.8711 474.153 89.831C474.109 89.7909 474.073 89.7424 474.047 89.6881C473.998 89.5708 473.997 89.439 474.044 89.3208C474.091 89.2026 474.182 89.1073 474.298 89.0552C474.987 88.7737 475.734 88.6626 476.476 88.7315C477.217 88.8004 477.931 89.0471 478.557 89.4508C478.607 89.4852 478.651 89.5292 478.684 89.5804C478.717 89.6316 478.74 89.6889 478.751 89.749C478.762 89.8091 478.761 89.8709 478.748 89.9306C478.735 89.9903 478.711 90.0468 478.676 90.0969C478.609 90.1725 478.522 90.2274 478.425 90.2551Z" fill="#263238"/>
<path d="M464.276 87.6181C464.206 87.6011 464.142 87.5645 464.092 87.5126C464.048 87.4696 464.013 87.4183 463.989 87.3617C463.965 87.3051 463.953 87.2443 463.953 87.183C463.953 87.1216 463.965 87.0608 463.989 87.0042C464.013 86.9476 464.048 86.8963 464.092 86.8533C464.597 86.2865 465.226 85.844 465.931 85.5604C466.635 85.2768 467.396 85.1597 468.153 85.2183C468.213 85.2277 468.272 85.2494 468.323 85.2821C468.375 85.3148 468.42 85.3579 468.455 85.4085C468.489 85.4592 468.513 85.5165 468.525 85.5767C468.536 85.637 468.535 85.699 468.522 85.7589C468.494 85.881 468.422 85.9886 468.32 86.0614C468.218 86.1342 468.093 86.1673 467.968 86.1545C467.369 86.1167 466.769 86.2158 466.214 86.4443C465.659 86.6727 465.163 87.0245 464.764 87.473C464.704 87.5398 464.627 87.5886 464.541 87.6142C464.454 87.6398 464.363 87.6411 464.276 87.6181Z" fill="#263238"/>
<path d="M513.883 141.507L500.17 137.855C500.17 137.855 486.721 170.964 481.961 173.113C475.5 176.067 459.136 186.299 452.174 191.138C451.792 192.786 452.095 197.15 452.965 198.35C464.832 196.188 487.551 187.446 492.298 183.002C503.123 172.863 513.883 141.507 513.883 141.507Z" fill="#E58A7B"/>
<path d="M504.309 467.956C503.639 468.009 502.973 467.827 502.423 467.441C502.253 467.288 502.126 467.093 502.055 466.876C501.983 466.659 501.969 466.426 502.014 466.202C502.023 466.062 502.069 465.927 502.148 465.811C502.227 465.694 502.335 465.602 502.463 465.543C503.57 464.976 506.669 466.94 507.025 467.165C507.064 467.189 507.094 467.225 507.111 467.268C507.128 467.311 507.13 467.358 507.117 467.402C507.106 467.448 507.083 467.49 507.051 467.525C507.018 467.559 506.978 467.585 506.933 467.6C506.073 467.811 505.193 467.93 504.309 467.956ZM502.99 465.899C502.89 465.877 502.787 465.877 502.687 465.899C502.636 465.924 502.594 465.964 502.566 466.013C502.538 466.063 502.525 466.119 502.529 466.176C502.493 466.329 502.499 466.489 502.546 466.639C502.592 466.79 502.677 466.926 502.792 467.033C503.307 467.494 504.599 467.547 506.3 467.217C505.287 466.55 504.146 466.101 502.951 465.899H502.99Z" fill="#407BFF"/>
<path d="M506.867 467.6C506.832 467.611 506.795 467.611 506.761 467.6C505.772 467.046 503.913 464.87 504.19 463.763C504.231 463.587 504.33 463.431 504.472 463.318C504.613 463.206 504.787 463.144 504.968 463.143C505.145 463.119 505.325 463.134 505.495 463.187C505.666 463.239 505.824 463.328 505.957 463.446C507.051 464.382 507.117 467.257 507.117 467.402C507.123 467.445 507.115 467.49 507.094 467.528C507.072 467.566 507.039 467.596 506.998 467.613C506.954 467.622 506.908 467.617 506.867 467.6ZM505.1 463.578H505.007C504.704 463.578 504.665 463.75 504.651 463.815C504.493 464.462 505.667 466.11 506.642 466.888C506.638 465.774 506.293 464.688 505.653 463.776C505.5 463.642 505.303 463.572 505.1 463.578Z" fill="#407BFF"/>
<path d="M469.301 466.308C468.494 466.589 467.615 466.589 466.809 466.308C466.625 466.208 466.47 466.064 466.357 465.889C466.244 465.714 466.177 465.513 466.163 465.305C466.146 465.175 466.163 465.043 466.211 464.92C466.259 464.798 466.338 464.69 466.439 464.607C467.494 463.657 471.806 464.607 472.294 464.791C472.34 464.803 472.381 464.831 472.41 464.869C472.439 464.907 472.454 464.954 472.452 465.002C472.454 465.052 472.441 465.101 472.415 465.143C472.39 465.185 472.352 465.219 472.307 465.239C471.336 465.678 470.331 466.035 469.301 466.308ZM467.151 464.738C467.001 464.769 466.86 464.837 466.743 464.936C466.701 464.968 466.668 465.01 466.65 465.059C466.631 465.108 466.627 465.162 466.637 465.213C466.646 465.352 466.689 465.486 466.763 465.603C466.836 465.72 466.938 465.818 467.059 465.886C467.758 466.255 469.38 465.965 471.476 465.081C470.064 464.725 468.602 464.609 467.151 464.738Z" fill="#407BFF"/>
<path d="M472.269 465.239H472.164C470.845 465.002 468.208 463.486 468.129 462.352C468.129 462.088 468.248 461.719 468.88 461.508C469.094 461.432 469.321 461.4 469.548 461.413C469.774 461.427 469.996 461.486 470.199 461.587C471.623 462.286 472.375 464.818 472.414 464.936C472.423 464.976 472.422 465.018 472.411 465.057C472.399 465.096 472.378 465.132 472.348 465.16C472.329 465.193 472.301 465.22 472.269 465.239ZM469.144 461.904H469.012C468.604 462.049 468.604 462.22 468.604 462.273C468.604 462.958 470.516 464.211 471.847 464.633C471.541 463.574 470.891 462.647 470.001 461.996C469.737 461.861 469.432 461.828 469.144 461.904Z" fill="#407BFF"/>
<path d="M453.293 190.36L439.541 196.689L437.945 200.645L443.022 204.06C443.022 204.06 452.515 203.031 455.218 196.926L453.293 190.36Z" fill="#E58A7B"/>
<path d="M453.872 198.575C453.565 195.932 452.693 193.387 451.314 191.112L453.49 189.477C455.127 192.098 456.171 195.046 456.549 198.113L453.872 198.575Z" fill="#263238"/>
<path d="M456.222 192.232C456.513 192.69 456.655 193.225 456.631 193.767C456.606 194.308 456.416 194.829 456.085 195.258C455.754 195.687 455.299 196.004 454.781 196.165C454.264 196.326 453.71 196.324 453.194 196.159C452.677 195.994 452.225 195.674 451.897 195.243C451.569 194.811 451.382 194.289 451.361 193.748C451.341 193.206 451.487 192.672 451.781 192.217C452.075 191.761 452.502 191.408 453.005 191.204C453.568 190.917 454.222 190.864 454.825 191.056C455.427 191.249 455.929 191.672 456.222 192.232Z" fill="#263238"/>
<path d="M430.246 201.805L432.079 203.651L444.421 198.377L439.542 196.689L430.246 201.805Z" fill="#E58A7B"/>
<path opacity="0.2" d="M483.239 442.811C483.318 442.811 485.112 447.848 485.112 447.848L466.863 455.522L463.988 450.168L483.239 442.811Z" fill="black"/>
<path opacity="0.2" d="M520.541 449.206C520.62 449.206 521.148 454.282 521.148 454.282H501.158L499.734 448.454L520.541 449.206Z" fill="black"/>
<path d="M517.455 137.71C521.081 149.406 506.907 165.4 506.907 165.4L487.326 157.409C489.647 150.649 492.323 144.017 495.343 137.539C501.356 124.577 513.79 125.909 517.455 137.71Z" fill="#407BFF"/>
<path opacity="0.2" d="M517.455 137.71C521.081 149.406 506.907 165.4 506.907 165.4L487.326 157.409C489.647 150.649 492.323 144.017 495.343 137.539C501.356 124.577 513.79 125.909 517.455 137.71Z" fill="black"/>
<path d="M322.888 20.53H314.463V21.8881H322.888V20.53Z" fill="#407BFF"/>
<path d="M431.955 74.283L430.936 96.9128L432.292 96.974L433.312 74.3441L431.955 74.283Z" fill="#407BFF"/>
<path d="M429.333 26.6218H273.743L259.266 350.618H414.855L429.333 26.6218Z" fill="#407BFF"/>
<path opacity="0.56" d="M424.692 31.0786H269.103L254.625 355.074H410.215L424.692 31.0786Z" fill="#FAFAFA"/>
<path opacity="0.07" d="M420.051 35.522H264.462L249.971 359.518H405.56L420.051 35.522Z" fill="#407BFF"/>
<path d="M402.342 176.832H269.537L268.43 201.621H401.235L402.342 176.832Z" fill="white"/>
<path d="M342.574 158.741H270.343L269.855 169.83H342.086L342.574 158.741Z" fill="#407BFF"/>
<path d="M399.35 243.735H266.545L265.438 268.524H398.243L399.35 243.735Z" fill="white"/>
<path opacity="0.47" d="M374.997 302.002H285.691L284.359 331.71H373.665L374.997 302.002Z" fill="#407BFF"/>
<path d="M369.022 336.324H279.716C279.677 336.335 279.637 336.335 279.598 336.324C279.585 336.286 279.585 336.244 279.598 336.206L280.916 306.486C280.916 306.465 280.92 306.445 280.928 306.427C280.936 306.408 280.948 306.392 280.963 306.378C280.978 306.364 280.996 306.354 281.015 306.348C281.034 306.341 281.054 306.339 281.074 306.34H370.38C370.397 306.332 370.415 306.328 370.433 306.328C370.451 306.328 370.469 306.332 370.486 306.34C370.495 306.357 370.5 306.375 370.5 306.393C370.5 306.412 370.495 306.43 370.486 306.446L369.194 336.232C369.178 336.263 369.153 336.289 369.122 336.305C369.092 336.322 369.057 336.328 369.022 336.324ZM279.875 336.008H368.864L370.183 306.604H281.193L279.875 336.008Z" fill="white"/>
<path d="M326.974 225.645H267.349L266.861 236.747H326.473L326.974 225.645Z" fill="#407BFF"/>
<path d="M373.295 96.7557C372.955 103.97 370.389 110.902 365.951 116.6C362.666 120.904 358.438 124.398 353.593 126.814C348.747 129.23 343.412 130.504 337.998 130.537C333.622 130.571 329.286 129.708 325.257 128.002C321.228 126.296 317.59 123.783 314.569 120.619C311.547 117.454 309.206 113.704 307.688 109.6C306.171 105.496 305.51 101.125 305.746 96.7557C306.21 87.6893 310.119 79.1426 316.676 72.8633C323.232 66.584 331.939 63.0465 341.017 62.9743C345.396 62.9335 349.736 63.791 353.771 65.4938C357.805 67.1967 361.447 69.7087 364.472 72.8747C367.497 76.0406 369.841 79.7933 371.359 83.9008C372.876 88.0083 373.535 92.3834 373.295 96.7557Z" fill="white"/>
<path d="M376.472 70.0417C376.386 71.96 375.704 73.8037 374.521 75.316C373.645 76.4591 372.52 77.3871 371.231 78.0293C369.942 78.6714 368.524 79.0106 367.084 79.0211C365.689 79.0296 364.313 78.6963 363.076 78.0505C361.84 77.4046 360.78 76.4658 359.99 75.316C358.944 73.7623 358.426 71.9128 358.513 70.0417C358.641 67.6346 359.682 65.3667 361.424 63.7006C363.166 62.0345 365.478 61.0957 367.888 61.0756C369.051 61.0649 370.204 61.2925 371.275 61.7444C372.347 62.1962 373.315 62.8626 374.119 63.7027C374.923 64.5427 375.547 65.5385 375.951 66.6287C376.356 67.7189 376.533 68.8804 376.472 70.0417Z" fill="#407BFF"/>
<path d="M283.845 189.226C283.781 190.289 283.318 191.288 282.547 192.022C281.776 192.756 280.756 193.171 279.691 193.182C279.177 193.188 278.668 193.089 278.194 192.89C277.72 192.691 277.292 192.398 276.936 192.027C276.58 191.656 276.304 191.216 276.124 190.735C275.945 190.253 275.867 189.74 275.894 189.226C275.951 188.162 276.413 187.159 277.185 186.424C277.957 185.688 278.981 185.276 280.047 185.271C280.561 185.266 281.07 185.367 281.543 185.566C282.016 185.766 282.443 186.06 282.799 186.43C283.154 186.8 283.43 187.239 283.61 187.72C283.79 188.201 283.87 188.714 283.845 189.226Z" fill="#263238"/>
<path d="M301.619 189.226C301.558 190.29 301.096 191.291 300.324 192.025C299.553 192.76 298.531 193.174 297.465 193.182C296.952 193.186 296.444 193.085 295.972 192.886C295.499 192.686 295.073 192.392 294.718 192.022C294.364 191.651 294.089 191.212 293.91 190.731C293.732 190.251 293.654 189.738 293.681 189.226C293.738 188.164 294.198 187.163 294.967 186.428C295.737 185.693 296.757 185.279 297.821 185.271C298.335 185.264 298.845 185.364 299.319 185.562C299.793 185.761 300.221 186.055 300.577 186.426C300.933 186.796 301.209 187.236 301.388 187.718C301.567 188.2 301.646 188.713 301.619 189.226Z" fill="#263238"/>
<path d="M319.407 189.226C319.346 190.29 318.883 191.291 318.112 192.025C317.341 192.76 316.318 193.174 315.253 193.182C314.74 193.186 314.231 193.085 313.758 192.886C313.285 192.687 312.857 192.393 312.502 192.023C312.146 191.652 311.87 191.213 311.69 190.732C311.51 190.251 311.431 189.739 311.456 189.226C311.516 188.163 311.979 187.162 312.75 186.427C313.522 185.692 314.544 185.279 315.609 185.271C316.123 185.264 316.633 185.364 317.107 185.562C317.581 185.761 318.009 186.055 318.365 186.426C318.721 186.796 318.997 187.236 319.176 187.718C319.355 188.2 319.434 188.713 319.407 189.226Z" fill="#263238"/>
<path d="M280.852 256.13C280.789 257.192 280.325 258.191 279.554 258.925C278.783 259.66 277.763 260.074 276.698 260.086C276.185 260.09 275.676 259.989 275.203 259.79C274.73 259.59 274.303 259.297 273.947 258.926C273.592 258.556 273.315 258.117 273.136 257.636C272.956 257.155 272.876 256.643 272.901 256.13C272.961 255.066 273.424 254.065 274.196 253.331C274.967 252.596 275.989 252.183 277.054 252.174C277.568 252.17 278.077 252.271 278.55 252.47C279.023 252.669 279.45 252.963 279.806 253.334C280.161 253.704 280.437 254.143 280.617 254.624C280.797 255.105 280.877 255.617 280.852 256.13Z" fill="#263238"/>
<path d="M298.625 256.13C298.564 257.191 298.103 258.19 297.335 258.925C296.566 259.659 295.547 260.074 294.484 260.086C293.97 260.092 293.461 259.992 292.987 259.794C292.513 259.595 292.085 259.301 291.729 258.93C291.373 258.56 291.097 258.12 290.917 257.638C290.738 257.156 290.66 256.643 290.687 256.13C290.747 255.066 291.21 254.065 291.981 253.331C292.753 252.596 293.775 252.183 294.84 252.174C295.353 252.17 295.861 252.271 296.334 252.47C296.806 252.67 297.233 252.964 297.587 253.334C297.942 253.705 298.217 254.144 298.395 254.625C298.573 255.106 298.652 255.618 298.625 256.13Z" fill="#263238"/>
<path d="M316.453 256.13C316.393 257.193 315.93 258.194 315.158 258.929C314.387 259.664 313.365 260.077 312.299 260.085C311.787 260.088 311.279 259.986 310.806 259.786C310.334 259.586 309.908 259.292 309.552 258.922C309.197 258.552 308.921 258.114 308.74 257.634C308.56 257.154 308.479 256.642 308.502 256.13C308.565 255.067 309.029 254.068 309.8 253.334C310.571 252.6 311.591 252.186 312.655 252.174C313.169 252.168 313.679 252.267 314.153 252.466C314.627 252.665 315.055 252.959 315.411 253.329C315.767 253.7 316.043 254.14 316.222 254.622C316.401 255.103 316.48 255.617 316.453 256.13Z" fill="#263238"/>
<path d="M334.201 256.13C334.138 257.192 333.674 258.191 332.903 258.925C332.132 259.66 331.112 260.074 330.047 260.086C329.535 260.088 329.027 259.986 328.554 259.786C328.082 259.586 327.656 259.292 327.3 258.922C326.945 258.552 326.669 258.114 326.488 257.634C326.308 257.154 326.227 256.642 326.25 256.13C326.313 255.067 326.777 254.068 327.548 253.334C328.319 252.6 329.339 252.186 330.403 252.174C330.917 252.17 331.426 252.271 331.899 252.47C332.372 252.669 332.799 252.963 333.155 253.334C333.51 253.704 333.786 254.143 333.966 254.624C334.146 255.105 334.226 255.617 334.201 256.13Z" fill="#263238"/>
<path d="M352.054 256.13C351.99 257.192 351.527 258.191 350.756 258.925C349.985 259.66 348.965 260.074 347.9 260.086C347.386 260.092 346.877 259.992 346.403 259.794C345.929 259.595 345.501 259.301 345.145 258.93C344.789 258.56 344.513 258.12 344.333 257.638C344.154 257.156 344.076 256.643 344.103 256.13C344.163 255.066 344.626 254.065 345.397 253.331C346.169 252.596 347.191 252.183 348.256 252.174C348.77 252.17 349.279 252.271 349.752 252.47C350.225 252.669 350.652 252.963 351.008 253.334C351.363 253.704 351.639 254.143 351.819 254.624C351.999 255.105 352.079 255.617 352.054 256.13Z" fill="#263238"/>
<path d="M349.356 94.9964C354.875 89.5994 355.168 80.9488 350.01 75.6746C344.852 70.4005 336.197 70.5 330.678 75.8969C325.159 81.2939 324.867 89.9445 330.024 95.2187C335.182 100.493 343.837 100.393 349.356 94.9964Z" fill="#407BFF"/>
<path d="M365.952 116.6C362.666 120.904 358.439 124.398 353.593 126.814C348.747 129.23 343.413 130.504 337.998 130.537C332.748 130.582 327.567 129.334 322.913 126.903C318.259 124.473 314.274 120.934 311.311 116.6C317.719 110.218 327.858 106.052 339.093 106.052C350.327 106.052 360.11 110.218 365.952 116.6Z" fill="#407BFF"/>
<path opacity="0.1" d="M349.356 94.9964C354.875 89.5994 355.168 80.9488 350.01 75.6746C344.852 70.4005 336.197 70.5 330.678 75.8969C325.159 81.2939 324.867 89.9445 330.024 95.2187C335.182 100.493 343.837 100.393 349.356 94.9964Z" fill="white"/>
<path opacity="0.1" d="M365.952 116.6C362.666 120.904 358.439 124.398 353.593 126.814C348.747 129.23 343.413 130.504 337.998 130.537C332.748 130.582 327.567 129.334 322.913 126.903C318.259 124.473 314.274 120.934 311.311 116.6C317.719 110.218 327.858 106.052 339.093 106.052C350.327 106.052 360.11 110.218 365.952 116.6Z" fill="white"/>
<path d="M171.952 207.593C170.7 210.336 169.381 213.356 168.234 216.283C167.087 219.21 165.913 222.229 164.898 225.236C162.825 231.16 161.246 237.247 160.178 243.432L159.888 245.37C159.86 245.703 159.891 246.037 159.98 246.359C160.291 247.452 160.781 248.486 161.43 249.418C163.124 251.832 165.088 254.044 167.285 256.011C169.601 258.165 172.031 260.194 174.563 262.089C177.095 264.041 179.758 265.94 182.382 267.733L179.917 272.361C173.651 269.631 167.704 266.222 162.182 262.195C159.236 260.046 156.577 257.529 154.271 254.706C152.903 253.025 151.837 251.12 151.119 249.075C150.702 247.798 150.488 246.463 150.486 245.12C150.486 244.803 150.486 244.342 150.486 244.118V243.471L150.618 242.153C151.374 235.283 152.819 228.507 154.93 221.926C155.958 218.683 157.053 215.452 158.305 212.301C159.558 209.149 160.85 206.064 162.446 202.86L171.952 207.593Z" fill="#E58A7B"/>
<path d="M180.525 266.915L189.847 262.195L187.434 272.427C187.434 272.427 181.039 274.22 178.072 271.108L180.525 266.915Z" fill="#E58A7B"/>
<path d="M198.378 263.87L195.899 272.335L187.434 272.427L189.847 262.195L198.378 263.87Z" fill="#E58A7B"/>
<path d="M211.536 158.227C212.035 160.054 212.729 161.822 213.606 163.501C213.35 163.792 213.02 164.008 212.651 164.126C212.282 164.244 211.887 164.261 211.51 164.173L211.536 158.227Z" fill="#DF5753"/>
<path d="M211.258 158.306C211.805 158.306 212.247 157.627 212.247 156.79C212.247 155.952 211.805 155.273 211.258 155.273C210.712 155.273 210.27 155.952 210.27 156.79C210.27 157.627 210.712 158.306 211.258 158.306Z" fill="#263238"/>
<path d="M210.969 155.326L212.973 154.759C212.973 154.759 211.997 156.315 210.969 155.326Z" fill="#263238"/>
<path d="M185.783 167.905C186.983 174.036 188.183 185.284 183.885 189.384C183.885 189.384 185.573 195.608 196.978 195.608C209.517 195.608 202.964 189.384 202.964 189.384C196.121 187.749 196.292 182.673 197.492 177.9L185.783 167.905Z" fill="#E58A7B"/>
<path d="M182.449 153.928C183.082 164.173 183.135 168.525 188.304 173.786C196.096 181.697 208.543 178.691 210.983 168.512C213.185 159.282 211.787 144.092 201.753 140.018C199.55 139.11 197.153 138.78 194.787 139.057C192.421 139.335 190.165 140.212 188.232 141.604C186.3 142.997 184.754 144.86 183.742 147.016C182.73 149.173 182.285 151.552 182.449 153.928Z" fill="#E58A7B"/>
<path d="M183.464 142.404C178.321 144.276 171.465 142.879 174.155 158.741C177.003 175.539 172.625 181.064 172.625 181.064C172.625 181.064 192.126 185.218 212.037 180.814C212.037 180.814 205.958 170.186 207.659 162.354C209.835 152.465 208.121 148.812 208.121 148.812C208.121 148.812 190.689 139.767 183.464 142.404Z" fill="#263238"/>
<path d="M205.219 159.268C205.224 161.216 205.782 163.123 206.827 164.767C208.225 166.903 209.873 166.085 210.282 163.817C210.651 161.826 210.374 158.306 208.594 156.934C206.814 155.563 205.245 156.908 205.219 159.268Z" fill="#E58A7B"/>
<path d="M178.993 144.131C177.516 139.978 184.558 133.583 199.457 136.22C214.357 138.857 215.003 151.265 215.003 151.265L211.997 147.678L212.129 151.449L196.82 154.39L178.993 144.131Z" fill="#263238"/>
<path d="M180.261 190.083C180.173 189.481 180.324 188.868 180.681 188.376C181.038 187.883 181.573 187.55 182.173 187.446C186.814 186.681 197.363 185.125 202.663 185.864C206.619 186.418 207.647 188.712 207.819 190.597C207.846 190.927 207.801 191.26 207.689 191.571C207.577 191.883 207.399 192.167 207.168 192.404C206.937 192.642 206.658 192.827 206.349 192.947C206.041 193.068 205.71 193.121 205.379 193.103L182.463 192.074C181.923 192.047 181.408 191.834 181.007 191.471C180.606 191.108 180.342 190.618 180.261 190.083Z" fill="#407BFF"/>
<path opacity="0.6" d="M180.261 190.083C180.173 189.481 180.324 188.868 180.681 188.376C181.038 187.883 181.573 187.55 182.173 187.446C186.814 186.681 197.363 185.125 202.663 185.864C206.619 186.418 207.647 188.712 207.819 190.597C207.846 190.927 207.801 191.26 207.689 191.571C207.577 191.883 207.399 192.167 207.168 192.404C206.937 192.642 206.658 192.827 206.349 192.947C206.041 193.068 205.71 193.121 205.379 193.103L182.463 192.074C181.923 192.047 181.408 191.834 181.007 191.471C180.606 191.108 180.342 190.618 180.261 190.083Z" fill="black"/>
<path d="M193.512 420.435L202.016 426.342L216.244 407.052L207.739 401.158L193.512 420.435Z" fill="#E58A7B"/>
<path d="M173.68 420.053L182.659 425.169L195.251 404.771L186.272 399.655L173.68 420.053Z" fill="#E58A7B"/>
<path d="M216.23 407.052L208.899 416.994L200.395 411.1L207.726 401.158L216.23 407.052Z" fill="#CF6F64"/>
<path d="M186.259 399.655L195.251 404.784L188.764 415.293L179.771 410.163L186.259 399.655Z" fill="#CF6F64"/>
<path d="M200.684 254.481C200.684 254.481 233.885 296.319 227.648 336.337C222.625 368.655 193.485 412.418 193.485 412.418L179.785 405.614C189.441 386.265 197.682 366.241 204.442 345.699C206.526 339.322 207.135 332.554 206.221 325.907C205.307 319.26 202.896 312.908 199.167 307.329C182.343 282.764 155.391 297.387 173.522 254.481H200.684Z" fill="#407BFF"/>
<path opacity="0.6" d="M200.684 254.481C200.684 254.481 233.885 296.319 227.648 336.337C222.625 368.655 193.485 412.418 193.485 412.418L179.785 405.614C189.441 386.265 197.682 366.241 204.442 345.699C206.526 339.322 207.135 332.554 206.221 325.907C205.307 319.26 202.896 312.908 199.167 307.329C182.343 282.764 155.391 297.387 173.522 254.481H200.684Z" fill="black"/>
<path opacity="0.4" d="M216.969 281.354L212.143 276.554C212.143 276.936 221.491 334.65 224.115 350.868C225.663 346.13 226.849 341.281 227.662 336.364C230.747 316.73 224.3 296.675 216.969 281.354Z" fill="black"/>
<path d="M215.506 254.481C215.506 254.481 255.484 307.066 256.618 338.592C257.555 364.963 213.106 416.057 213.106 416.057L200.184 407.698C200.184 407.698 226.199 371.411 232.753 341.77C230.221 312.392 176.688 254.481 176.688 254.481H215.506Z" fill="#407BFF"/>
<path opacity="0.6" d="M215.506 254.481C215.506 254.481 255.484 307.066 256.618 338.592C257.555 364.963 213.106 416.057 213.106 416.057L200.184 407.698C200.184 407.698 226.199 371.411 232.753 341.77C230.221 312.392 176.688 254.481 176.688 254.481H215.506Z" fill="black"/>
<path d="M166.045 191.731C161.773 192.747 157.672 208.279 157.672 208.279L174.378 219.434C174.378 219.434 179.942 207.145 177.991 201.765C175.973 196.162 171.411 190.452 166.045 191.731Z" fill="#407BFF"/>
<path opacity="0.2" d="M169.317 201.739L168.156 215.281L174.367 219.447C176.081 215.587 177.351 211.543 178.151 207.396L169.317 201.739Z" fill="black"/>
<path d="M220.449 192.035C220.449 192.035 225.38 193.762 215.504 254.468H173.495C174.207 237.327 174.22 226.779 166.045 191.731C171.927 190.519 177.889 189.735 183.885 189.384C190.237 188.929 196.613 188.929 202.965 189.384C211.166 190.136 220.449 192.035 220.449 192.035Z" fill="#407BFF"/>
<path d="M224.721 201.739C225.671 204.376 226.673 207.211 227.728 209.941C228.782 212.67 229.784 215.479 230.853 218.247L234.083 226.528L234.9 228.598L235.322 229.627L235.52 230.141C235.52 230.233 235.52 230.233 235.52 230.22C235.279 229.88 234.963 229.601 234.597 229.402C234.076 229.096 233.488 228.919 232.883 228.888C232.381 228.873 231.881 228.967 231.419 229.165C230.813 229.442 230.813 229.561 230.826 229.548C230.936 229.46 231.033 229.358 231.116 229.244C231.846 228.286 232.478 227.257 233.002 226.172C233.621 224.959 234.215 223.667 234.808 222.361C235.969 219.724 237.037 216.995 238.105 214.239C239.173 211.483 240.188 208.701 241.177 205.893L244.183 197.48L249.26 198.799C248.257 204.811 246.965 210.666 245.409 216.626C244.658 219.592 243.774 222.533 242.772 225.5C242.271 226.99 241.717 228.466 241.085 229.983C240.425 231.628 239.613 233.209 238.658 234.703C238.308 235.206 237.92 235.682 237.498 236.127C236.825 236.854 236.007 237.434 235.098 237.828C234.291 238.174 233.418 238.337 232.54 238.303C231.557 238.266 230.6 237.98 229.758 237.472C228.765 236.852 227.94 235.996 227.358 234.98C227.161 234.637 226.989 234.294 226.87 234.044L226.62 233.543L226.119 232.514L225.117 230.471C223.798 227.728 222.48 224.959 221.333 222.177C220.185 219.395 218.972 216.573 217.838 213.738C216.704 210.903 215.689 208.068 214.727 205.009L224.721 201.739Z" fill="#E58A7B"/>
<path d="M220.449 192.034C225.499 193.234 231.182 208.16 231.182 208.16L216.164 220.937C216.164 220.937 206.446 204.666 208.411 199.3C210.454 193.709 213.856 190.465 220.449 192.034Z" fill="#407BFF"/>
<path d="M246.569 192.76L251.843 188.356L255.509 194.065L252.806 198.825C252.806 198.825 248.507 202.781 244.71 200.763C244.107 199.409 243.962 197.894 244.298 196.45C244.633 195.006 245.431 193.71 246.569 192.76Z" fill="#E58A7B"/>
<path d="M261.364 188.369L260.969 189.806L252.622 191.204L251.805 188.356L261.364 188.369Z" fill="#E58A7B"/>
<path d="M214.134 416.73L199.076 406.999L201.779 402.305L218.696 412.708L214.134 416.73Z" fill="#407BFF"/>
<path d="M188.553 424.483C187.232 424.321 185.963 423.871 184.835 423.164C184.789 423.148 184.748 423.118 184.72 423.078C184.691 423.038 184.676 422.989 184.676 422.94C184.676 422.891 184.691 422.843 184.72 422.803C184.748 422.762 184.789 422.732 184.835 422.716C185.244 422.584 188.791 421.49 189.819 422.334C189.935 422.43 190.023 422.555 190.074 422.696C190.125 422.838 190.137 422.99 190.109 423.138C190.091 423.375 190.012 423.604 189.881 423.803C189.749 424.001 189.569 424.163 189.358 424.272C189.111 424.407 188.835 424.479 188.553 424.483ZM185.587 423.032C187.235 423.876 188.553 424.18 189.186 423.863C189.324 423.787 189.44 423.676 189.523 423.543C189.606 423.409 189.654 423.256 189.661 423.098C189.661 422.887 189.661 422.795 189.542 422.742C188.989 422.294 187.011 422.637 185.56 423.032H185.587Z" fill="#263238"/>
<path d="M184.927 423.257C184.858 423.256 184.791 423.227 184.743 423.178C184.723 423.141 184.713 423.1 184.713 423.059C184.713 423.017 184.723 422.977 184.743 422.94C184.743 422.822 185.6 419.96 186.945 419.314C187.117 419.236 187.303 419.195 187.492 419.195C187.681 419.195 187.867 419.236 188.039 419.314C188.224 419.373 188.385 419.491 188.495 419.652C188.604 419.812 188.658 420.004 188.646 420.198C188.553 421.384 186.14 423.019 185.033 423.296L184.927 423.257ZM187.485 419.657C187.357 419.661 187.231 419.692 187.116 419.749C186.299 420.145 185.626 421.688 185.297 422.624C186.457 422.136 188.052 420.844 188.105 420.119C188.105 420 188.105 419.855 187.802 419.723C187.703 419.67 187.596 419.634 187.485 419.617V419.657Z" fill="#263238"/>
<path d="M207.369 430.179C205.88 430.179 203.809 428.267 202.675 427.094C202.646 427.053 202.631 427.005 202.631 426.955C202.631 426.906 202.646 426.857 202.675 426.817C202.701 426.774 202.738 426.74 202.783 426.716C202.827 426.693 202.876 426.682 202.926 426.685C203.453 426.685 208.029 427.371 208.675 428.663C208.743 428.779 208.779 428.911 208.779 429.045C208.779 429.18 208.743 429.312 208.675 429.428C208.578 429.629 208.432 429.802 208.249 429.931C208.067 430.06 207.855 430.141 207.633 430.166L207.369 430.179ZM203.546 427.278C205.207 428.887 206.671 429.784 207.501 429.678C207.647 429.659 207.785 429.605 207.905 429.52C208.024 429.434 208.121 429.321 208.187 429.19C208.216 429.145 208.232 429.092 208.232 429.039C208.232 428.985 208.216 428.932 208.187 428.887C207.844 428.175 205.405 427.568 203.546 427.278Z" fill="#263238"/>
<path d="M203.69 427.212C203.394 427.221 203.098 427.199 202.806 427.147C202.766 427.14 202.727 427.124 202.695 427.098C202.663 427.073 202.637 427.04 202.622 427.002C202.602 426.963 202.592 426.92 202.592 426.876C202.592 426.833 202.602 426.79 202.622 426.751C202.701 426.659 204.481 424.509 206.169 424.364C206.646 424.327 207.12 424.479 207.487 424.786C208.001 425.235 207.975 425.63 207.843 425.881C207.514 426.777 205.232 427.212 203.69 427.212ZM203.347 426.725C204.824 426.804 207.184 426.316 207.487 425.67C207.487 425.67 207.593 425.459 207.25 425.169C207.113 425.05 206.954 424.961 206.782 424.906C206.609 424.852 206.428 424.833 206.248 424.852C205.111 425.17 204.099 425.828 203.347 426.738V426.725Z" fill="#263238"/>
<path d="M185.283 421.833L174.102 418.668C173.909 418.61 173.702 418.625 173.519 418.71C173.337 418.795 173.192 418.944 173.113 419.13L169.342 427.608C169.253 427.825 169.212 428.059 169.22 428.293C169.228 428.527 169.286 428.757 169.389 428.968C169.492 429.178 169.639 429.364 169.82 429.514C170 429.664 170.21 429.774 170.436 429.836C174.392 430.865 176.291 431.155 181.209 432.566C184.241 433.41 188.566 434.979 192.746 436.165C196.926 437.352 198.324 433.278 196.702 432.408C189.371 428.531 188.79 425.815 186.786 422.914C186.427 422.389 185.895 422.006 185.283 421.833Z" fill="#407BFF"/>
<path d="M202.979 425.551L193.433 418.958C193.271 418.84 193.071 418.786 192.872 418.805C192.673 418.825 192.487 418.917 192.351 419.064L186.022 425.867C185.868 426.043 185.753 426.25 185.685 426.474C185.617 426.697 185.597 426.933 185.627 427.165C185.657 427.397 185.736 427.62 185.858 427.819C185.981 428.018 186.145 428.189 186.339 428.32C189.701 430.575 191.442 431.485 195.648 434.399C198.285 436.192 203.388 440.174 206.948 442.653C210.508 445.132 213.158 441.73 211.892 440.385C206.223 434.333 204.983 430.535 204.047 427.094C203.885 426.469 203.506 425.923 202.979 425.551Z" fill="#407BFF"/>
<path d="M195.238 413.288L178.031 404.731L179.811 400.063L198.192 409.082L195.238 413.288Z" fill="#407BFF"/>
<path d="M172.863 252.003L171.412 255.8C171.267 256.09 171.61 256.393 172.098 256.393H215.716C216.098 256.393 216.415 256.209 216.441 255.971L216.81 252.2C216.81 251.95 216.507 251.726 216.098 251.726H173.549C173.42 251.714 173.291 251.733 173.172 251.781C173.053 251.829 172.947 251.905 172.863 252.003Z" fill="#407BFF"/>
<path opacity="0.4" d="M172.863 252.003L171.412 255.8C171.267 256.09 171.61 256.393 172.098 256.393H215.716C216.098 256.393 216.415 256.209 216.441 255.971L216.81 252.2C216.81 251.95 216.507 251.726 216.098 251.726H173.549C173.42 251.714 173.291 251.733 173.172 251.781C173.053 251.829 172.947 251.905 172.863 252.003Z" fill="white"/>
<path d="M179.731 256.763H178.584C178.36 256.763 178.189 256.644 178.202 256.499L178.742 251.607C178.742 251.475 178.953 251.356 179.178 251.356H180.325C180.549 251.356 180.72 251.475 180.707 251.607L180.167 256.499C180.153 256.644 179.956 256.763 179.731 256.763Z" fill="#407BFF"/>
<path d="M206.632 256.763H205.498C205.274 256.763 205.103 256.644 205.116 256.499L205.643 251.607C205.643 251.475 205.868 251.356 206.092 251.356H207.226C207.45 251.356 207.634 251.475 207.608 251.607L207.081 256.499C207.015 256.644 206.87 256.763 206.632 256.763Z" fill="#407BFF"/>
<g style="mix-blend-mode:multiply">
<path d="M178.73 480.06C198.239 480.06 214.055 478.915 214.055 477.502C214.055 476.089 198.239 474.944 178.73 474.944C159.221 474.944 143.406 476.089 143.406 477.502C143.406 478.915 159.221 480.06 178.73 480.06Z" fill="#F5F5F5"/>
</g>
<path d="M200.248 473.889C193.998 472.07 187.063 469.736 182.87 467.296C182.751 467.217 182.619 467.178 182.501 467.112V438.816H195.146C196.105 438.759 197.007 438.337 197.667 437.638C198.326 436.938 198.694 436.013 198.694 435.051C198.694 434.09 198.326 433.164 197.667 432.465C197.007 431.765 196.105 431.344 195.146 431.287H182.566V302.305H174.972V431.287H162.406C161.893 431.256 161.379 431.331 160.896 431.507C160.413 431.682 159.97 431.954 159.596 432.307C159.222 432.659 158.924 433.085 158.721 433.557C158.517 434.029 158.412 434.537 158.412 435.051C158.412 435.565 158.517 436.074 158.721 436.546C158.924 437.018 159.222 437.443 159.596 437.795C159.97 438.148 160.413 438.42 160.896 438.596C161.379 438.771 161.893 438.846 162.406 438.816H174.972V467.072C174.853 467.072 174.734 467.178 174.616 467.257C170.357 469.736 163.474 472.07 157.224 473.85C156.802 473.977 156.439 474.252 156.202 474.624C155.965 474.996 155.868 475.44 155.931 475.877C155.993 476.313 156.209 476.713 156.541 477.004C156.872 477.295 157.297 477.458 157.738 477.463H199.734C200.156 477.434 200.554 477.261 200.864 476.974C201.174 476.687 201.376 476.302 201.436 475.884C201.496 475.466 201.411 475.04 201.195 474.677C200.979 474.314 200.645 474.036 200.248 473.889Z" fill="#E0E0E0"/>
<path d="M202.187 289.173H155.299C151.527 289.173 148.469 292.231 148.469 296.003V309.94C148.469 313.712 151.527 316.77 155.299 316.77H202.187C205.959 316.77 209.017 313.712 209.017 309.94V296.003C209.017 292.231 205.959 289.173 202.187 289.173Z" fill="#407BFF"/>
<path d="M154.865 316.783V319.183C154.865 321.161 157.014 322.769 159.652 322.769H197.89C200.527 322.769 202.676 321.161 202.676 319.183V316.783H154.865Z" fill="#407BFF"/>
<path opacity="0.3" d="M154.865 316.783V319.183C154.865 321.161 157.014 322.769 159.652 322.769H197.89C200.527 322.769 202.676 321.161 202.676 319.183V316.783H154.865Z" fill="white"/>
</svg>
